<?xml version="1.0" encoding="utf-8"?>
<!-- Generator: Adobe Illustrator 22.1.0, SVG Export Plug-In . SVG Version: 6.00 Build 0)  -->
<svg version="1.1" id="Capa_1" xmlns="http://www.w3.org/2000/svg" xmlns:xlink="http://www.w3.org/1999/xlink" x="0px" y="0px"
	 viewBox="0 0 459.5 459.5" style="enable-background:new 0 0 459.5 459.5;" xml:space="preserve">
<style type="text/css">
	.st0{fill:#FFFFFF;}
</style>
<g>
	<g>
		<path class="st0" d="M17,55.2h48.7l69.4,251c2,7.4,8.8,12.5,16.4,12.5h213.3c6.8,0,12.8-4,15.6-10.2L458.1,130
			c2.3-5.4,1.7-11.3-1.4-16.2s-8.5-7.7-14.2-7.7H206.8c-9.4,0-17,7.7-17,17s7.6,17,17,17h209.7l-62.9,144.5H164.3l-69.4-251
			c-2-7.4-8.8-12.5-16.4-12.5H17c-9.4,0-17,7.6-17,17S7.7,55.2,17,55.2z"/>
		<path class="st0" d="M135.4,438.3c21.3,0,38.5-17.3,38.5-38.5s-17.3-38.5-38.5-38.5s-38.5,17.3-38.5,38.5S114.2,438.3,135.4,438.3
			z"/>
		<path class="st0" d="M376.3,438.3c0.9,0,2,0,2.8,0c10.2-0.9,19.5-5.4,26.4-13.3c6.8-7.6,9.9-17.6,9.4-28
			c-1.4-21-19.8-37.1-41.1-35.7s-37.1,20.1-35.7,41.1C339.4,422.4,356.1,438.3,376.3,438.3z"/>
	</g>
</g>
</svg>
